<svg version="1.1" xmlns="http://www.w3.org/2000/svg" viewBox="0 0 1223 841.5">
  <!-- svg-source:excalidraw -->
  <defs>
    <style>
      @font-face {
        font-family: "Virgil";
        src: url("https://excalidraw.com/FG_Virgil.woff2");
      }
      @font-face {
        font-family: "Cascadia";
        src: url("https://excalidraw.com/Cascadia.woff2");
      }
    </style>
  </defs>
  <rect x="0" y="0" width="1223" height="841.5" fill="#ffffff"></rect><g transform="translate(10 17.499999999999943) rotate(0 143 243.49999999999994)"><path d="M0.7833257872281372 -1.3818239105865775 C56.97370663074306 -2.1798038176455883, 116.17842404040178 0.16452211261049188, 285.46185592080377 -0.15915248134177326 M-0.11073649711219369 -0.5327833027022689 C63.91314512415971 -0.877938285655155, 128.26998584902964 -1.4006032688022991, 285.6137454224571 -0.03796617294448316 M286.69411030520814 -0.1873900975568176 C287.5586952169162 138.983545149549, 286.95937706564854 278.72439888753615, 285.3307274658584 487.09421165081994 M286.19477236997596 0.12355111044060592 C284.3546767748464 113.95988098998403, 284.14809420828965 227.73507350367663, 285.5899495599542 486.84468374900536 M285.2788453815919 487.1416484236689 C223.66200078084853 488.5585729248741, 159.76678282476453 489.20244584684167, 0.7507938113223372 486.029386340548 M285.82501818113013 487.4610101314546 C180.46599644305618 486.21508478301445, 76.56711920369746 485.83016612227334, -0.10286101622563897 486.7966961721804 M0.3660349352671982 487.35898108291866 C0.7965567860370386 354.4752778870267, 0.7694666236610163 220.4400872890473, -0.6113465124077442 0.1740899657927156 M-0.19053203096053012 486.6630871042542 C-0.4221769191989365 334.34518046994276, -0.17037881242803954 181.19642388501492, -0.33588053349940195 -0.14733814962466366" stroke="#000000" stroke-width="1" fill="none"></path></g><g transform="translate(68 85.49999999999994) rotate(0 61 20)"><path d="M0.710917741060257 0.71027871966362 C39.93059569895268 0.8342641881108284, 77.49332175254823 -1.7461868235468865, 122.40950039029121 -1.0066602528095245 M0.7595263570547104 -0.903218612074852 C34.30228998661041 -1.7722505292296409, 66.63715261518955 -0.3685377797484397, 122.1194559186697 0.2566501051187515 M120.71936824917793 -1.3752439320087433 C121.58765519857407 14.256002098321916, 121.5898133635521 29.46168050169945, 123.02955368161201 41.58576509356499 M121.89060841500759 -0.4411991685628891 C122.95936503708363 8.887295916676521, 121.90131726562977 18.796983018517494, 121.47867213189602 40.98247875273228 M121.00812271237373 41.09144899249077 C96.10546421706675 40.25291264742613, 66.13374444246291 39.297278530299664, 1.1769812405109406 38.061460703611374 M122.24555216729641 39.048667564988136 C80.93732299208642 41.108934051692486, 39.98662250339986 40.62553132265806, 0.24290238320827484 39.140939846634865 M-1.8085610568523407 38.949224680662155 C-1.7594629049301147 26.31813696026802, 0.8454174280166626 13.267340987920761, -0.5027091205120087 1.7280437648296356 M0.13441620767116547 40.404760494828224 C0.5907616287469863 30.332036092877388, 0.14199730455875398 23.228199020028114, 0.4565802663564682 -0.4139627069234848" stroke="#000000" stroke-width="1" fill="none"></path></g><g transform="translate(108.5 95.99999999999994) rotate(0 16.5 11.5)"><text x="0" y="18" font-family="Virgil" font-size="20px" fill="#000000" text-anchor="start" style="white-space: pre;" direction="ltr">etcd</text></g><g transform="translate(54 146.49999999999994) rotate(0 86 20.5)"><path d="M-0.6915194690227509 -0.3362891972064972 C57.644075357913984 0.5041290193796157, 116.97701515555384 0.1462732225656509, 173.60001972317698 -1.4479425251483917 M0.3913632482290268 -0.5046447366476059 C37.844686916470536 -0.1392400944232941, 75.71608614623548 0.9720227038860321, 172.38108406960967 -0.6908758729696274 M172.3635008633137 -1.4498269855976105 C171.13582192793493 16.87816588133574, 171.6370645655692 31.65754424631596, 173.23343971371654 40.36842080950737 M172.99964867532256 0.041206493973731995 C171.29961862966422 14.942659299075606, 171.61849346563224 29.783702558279042, 171.6872302144766 41.28968299925327 M172.49374702572825 42.66267892718315 C131.81991443634035 40.40020882308483, 94.10631744265558 40.27263867080212, -1.1233441531658173 40.05438253283501 M172.762459859252 41.69986595213413 C135.97589015066626 41.47805315256119, 101.48532569110395 42.43071609735489, -0.014695540070533752 41.631585255265236 M-1.4990231692790985 41.65259572863579 C1.2906424890458583 32.30333754569292, -1.2733614553511143 24.03632423579693, 1.3626759350299835 1.7300598323345184 M-0.6038946062326431 40.403462544083595 C0.6181826443970203 30.085940803587434, -0.1509246973693371 16.78320482969284, -0.2740096002817154 -0.7174151986837387" stroke="#000000" stroke-width="1" fill="none"></path></g><g transform="translate(76.5 155.99999999999994) rotate(0 59.5 11.5)"><text x="0" y="18" font-family="Virgil" font-size="20px" fill="#000000" text-anchor="start" style="white-space: pre;" direction="ltr">kube-apiserver</text></g><g transform="translate(33 206.99999999999994) rotate(0 121 20.5)"><path d="M1.0086913121879457 1.2721130243337748 C82.27511388219739 -1.4896661038124128, 168.06844569985088 -1.78457441404839, 242.54880816591228 -1.0723512505147812 M-0.491313088880819 -0.6570517660179196 C72.49517975592319 1.5515994812591596, 146.00740621567473 0.9437856850984618, 242.35351252876694 0.25297210819529886 M242.9664842784405 1.1626046001911163 C242.26880212649706 14.82768603116274, 241.89309354647997 30.86315930783749, 242.52002260088923 39.01096752285957 M242.31304658949378 -0.9280785471200943 C242.5583006604016 12.034104020893574, 242.3945543034375 22.93096371293068, 241.19241298735145 41.967312440276146 M243.2549409583023 40.52141901009198 C191.65834796003438 41.027429754937216, 137.59066893050422 40.38658307778229, -0.6189380344822047 39.78466390948659 M242.77793995271657 40.18923118045234 C169.13797987711993 39.28344714772181, 96.11209966217395 40.460313632090894, -0.24240908196725244 40.565707558754916 M0.4408552348613739 41.52304199337959 C-0.2106662856042385 32.59296641796827, 1.1185201539099217 19.371173313260076, 0.9215786159038544 1.5213682949543 M0.7442113310098648 40.825159177184105 C0.26987834736704824 25.564551220834254, 0.850852449387312 7.42905007600784, -0.5485108941793442 0.8306270688772202" stroke="#000000" stroke-width="1" fill="none"></path></g><g transform="translate(36 211.49999999999994) rotate(0 115 16)"><text x="0" y="23" font-family="Virgil" font-size="20px" fill="#000000" text-anchor="start" style="white-space: pre;" direction="ltr">kube-controller-manager</text></g><g transform="translate(72 259.49999999999994) rotate(0 72 20)"><path d="M0.23855236172676086 -0.8389470875263214 C53.09171453118324 2.5673440754413606, 109.21077635884285 1.4459079563617707, 144.55471923947334 0.8524086177349091 M-0.2918657213449478 -0.650235041975975 C33.74227288663388 -0.0695735567808149, 66.63052221238614 -0.11729208171367622, 144.73363696038723 -0.610285148024559 M144.07528045773506 1.8629753291606903 C143.9176551222801 15.023302704095842, 143.72495855093 33.069585889577866, 145.26965168118477 39.356302469968796 M143.86233340203762 0.6956497579813004 C143.3247696429491 11.859489157795906, 142.8634168177843 24.050321355462074, 144.75610695779324 40.03895963728428 M144.0448515713215 41.03019925951958 C92.61107683777809 40.499780212640765, 38.34359238743781 38.200426613092425, -1.4792525470256805 39.00030252337456 M144.15006218850613 39.65190137922764 C104.5891148418188 38.08343544304371, 64.29145790040492 38.034343627095225, -0.7348660379648209 39.28148140013218 M1.6677735149860382 41.09534189105034 C1.5340681314468383 25.066703587770462, 0.27807810306549074 11.61738047003746, 0.8597643673419952 1.6857759654521942 M0.17825423181056976 40.51002372801304 C-0.8429727882146836 31.119380548596382, -0.5964093536138535 22.799675479531288, -0.89797343313694 -0.07559095323085785" stroke="#000000" stroke-width="1" fill="none"></path></g><g transform="translate(79 267.99999999999994) rotate(0 61 11.5)"><text x="0" y="18" font-family="Virgil" font-size="20px" fill="#000000" text-anchor="start" style="white-space: pre;" direction="ltr">kube-scheduler</text></g><g transform="translate(75 319.49999999999994) rotate(0 72 20)"><path d="M-0.1526792347431183 -1.97934028506279 C34.73479847311974 2.257697447538376, 69.10295855402947 1.8851302707195283, 145.9733688533306 0.4879191219806671 M-0.2460850328207016 -0.7706192880868912 C45.11269208490849 -0.30547179043293005, 90.84953621923924 -0.06409634411334997, 144.93101085722446 0.8250890821218491 M143.1274902522564 -0.9180333316326141 C145.66764971017838 10.9771269261837, 144.40244528055192 21.79443684220314, 142.168791025877 41.71161010861397 M144.73548091948032 0.3994642347097397 C144.7761276215315 13.617415949702265, 144.14282254874706 27.611353382468227, 144.87804616987705 40.16666613519192 M144.45499250292778 38.94310882687569 C111.97561149001122 40.52198486685753, 80.98277222514153 39.65253048300743, 1.2113506495952606 41.107206612825394 M144.0051480680704 40.50239382684231 C85.66548010408877 38.86210339248181, 29.09157446920871 40.62194197356701, -0.9664071649312973 40.55974160134792 M-0.6125552952289581 39.34334400296211 C-1.8373239755630495 29.7853362262249, -0.4738052606582642 23.04986873269081, 0.12741491198539734 -1.5547835528850555 M-0.7080796808004379 40.285728082060814 C0.3038357585668564 24.92084662616253, 0.8752120822668076 11.741130575537678, -0.3577202409505844 0.48624907433986664" stroke="#000000" stroke-width="1" fill="none"></path></g><g transform="translate(117.5 327.99999999999994) rotate(0 29.5 11.5)"><text x="0" y="18" font-family="Virgil" font-size="20px" fill="#000000" text-anchor="start" style="white-space: pre;" direction="ltr">kubelet</text></g><g transform="translate(89 375.49999999999994) rotate(0 72 20)"><path d="M1.004787653684616 -1.8951689898967743 C52.65642856955529 -0.2765226757526398, 110.53484560847284 -1.9402275478839874, 145.11948320269585 -1.4263226687908173 M-0.3283279985189438 -0.720816507935524 C56.911219993233686 0.4019826620817184, 115.56203812658788 0.5047472685575485, 143.22260822355747 0.5215593427419662 M144.57145616412163 0.7604983150959015 C141.76535021066667 14.667384952306747, 143.5783928513527 24.81282749772072, 144.97249814867973 39.45813491940498 M143.40159000456333 0.15111027657985687 C144.49594840705396 11.1467032879591, 144.24832448661328 23.353828892111782, 143.6386987119913 39.625526532530785 M145.71280118823051 38.6261570751667 C103.03414954543113 39.563590549230575, 63.33813340067863 38.98893597006798, 0.574994295835495 39.54965427517891 M144.81218732893467 39.094555005431175 C90.2617436081171 41.39069981276989, 37.135265341401094 41.28145880401134, -0.03162132203578949 39.60716401040554 M-1.6385600864887238 41.06606510281563 C-0.2118875741958618 29.833489149808884, -1.4810592889785767 19.989859730005264, -0.6716611683368683 -1.75625678896904 M-0.5550321191549301 40.04457627236843 C-0.3264914661645889 28.107741996645927, -0.5764652401208877 16.16662000119686, 0.2687770277261734 0.13590537011623383" stroke="#000000" stroke-width="1" fill="none"></path></g><g transform="translate(108.5 380.49999999999994) rotate(0 50.5 16)"><text x="0" y="23" font-family="Virgil" font-size="20px" fill="#000000" text-anchor="start" style="white-space: pre;" direction="ltr">kube-proxy</text></g><g transform="translate(77 431.49999999999994) rotate(0 87 32.5)"><path d="M1.9752953350543976 1.4811184108257294 C54.84598110616207 3.4927605709433553, 111.28237122297287 0.061845692098140725, 172.03191021084785 -1.6622121632099152 M-0.2566040903329849 -0.5360444635152817 C47.2007279932499 0.22571570962667464, 93.68258095085622 1.0654025802016258, 173.00145779550076 -0.6307533830404282 M172.92673900723457 0.6186182200908661 C175.51670741811395 24.016348294913776, 175.87909507527948 50.20335449278356, 173.19261291623116 63.61807939410211 M174.14419232308865 0.3076278120279312 C173.46863058134915 24.323121599853046, 173.20410087630154 46.96863552927972, 174.67531023919582 64.90055622160436 M174.84989288449287 66.17942735552789 C126.29878738224505 63.67768160730601, 77.15127685070037 64.97314612299205, 0.19709613919258118 63.027734965086 M174.51689730584621 64.14985050261022 C115.32146440744398 67.12785429507495, 55.090982070565204 65.96714443713428, 0.6897235959768295 64.6477013975382 M0.9840147793292999 64.37741300463678 C-1.1078877307474615 44.238165386021144, -2.119340405613184 23.644053265452385, 0.31586769223213196 -0.750628262758255 M-0.14093054831027985 64.14150251448156 C-0.15213881656527511 50.49322912842036, -0.25660382434725754 35.487671196460724, -0.2233685404062271 -0.2228139489889145" stroke="#000000" stroke-width="1" fill="none"></path></g><g transform="translate(137 434.49999999999994) rotate(0 27 11.5)"><text x="0" y="18" font-family="Virgil" font-size="20px" fill="#000000" text-anchor="start" style="white-space: pre;" direction="ltr">docker</text></g><g transform="translate(17 566.5) rotate(0 143 132.5)"><path d="M0.6297045382318853 1.1595425913417456 C112.58063902307552 0.40619863984130844, 225.41914888080734 2.388764769578781, 284.9772415070212 -1.0331729807739614 M-0.5296275666004359 -0.6648577696448147 C60.136815314213926 0.14624239382919973, 120.8214650469631 0.009243986849257424, 286.1064364400358 0.28112896820442074 M286.71154006346273 -0.5788125903563499 C288.17008720840556 60.21147328107549, 285.25734097691446 123.49669969010499, 285.6368248221145 264.0699962874666 M286.5878875173142 -0.5055877264626025 C288.0010077783995 73.67800658693531, 287.6638094457808 148.09438197137814, 286.26549166789556 265.6094849863594 M287.3078765802233 264.36995595939675 C192.2083552256264 263.28607867895806, 96.15655894313642 263.58188446140554, -1.3026109110704063 265.58174852041094 M285.37208559490506 265.5095036627523 C227.17991840376473 264.99752901600846, 169.84312689619978 266.0382610883376, 0.03384931771562695 264.6213434510288 M-0.0710037388138771 263.7618197153383 C1.8454367644465568 167.2504839277077, 0.9255409870570305 69.54341370892477, 1.5178733821425436 -1.0253625972685811 M0.43212208959507936 264.4621868440788 C1.6289713706293463 173.7826597477067, 1.1639010843973516 81.90339995675447, -0.5954901206634043 -0.7456945431969165" stroke="#000000" stroke-width="1" fill="none"></path></g><g transform="translate(81 642.5) rotate(0 72 20)"><path d="M1.31879261136055 -0.5618570148944855 C32.067577034235 -0.47360830187797553, 66.49827674031258 0.06346387982368462, 144.57447364926338 -1.582476407289505 M0.28103600442409515 -0.1110304445028305 C45.675088247656824 0.6334095746278763, 91.44961839616299 0.42782361805438995, 143.15855894982815 0.7990671545267105 M145.1550934612751 1.5164692103862762 C145.25029596090317 9.805134445428848, 145.75944265127183 21.907489866018295, 145.14249446988106 41.35055562853813 M144.26113234460354 -0.8805936425924301 C145.17224221527576 12.925141051411629, 144.7120185405016 26.80962635576725, 143.31454335153103 40.32212175428867 M145.33712795376778 40.50345632433891 C111.53573389649391 39.95121156334877, 80.44164574742317 37.15802251458168, 0.02206924557685852 41.30455324053764 M143.12768803536892 40.62915529310703 C100.11094082295895 40.203685725331304, 56.32135120332241 40.91664835274219, -0.5712355524301529 39.8886486440897 M-1.5520960986614227 38.769221514463425 C1.3507749795913697 22.806459218263626, 0.26147196292877195 9.225746482610703, -1.1725442111492157 0.11838361620903015 M0.45638667047023773 40.24097026884556 C0.25263592302799226 30.0408902913332, 0.42415663301944734 22.5260062366724, -0.688719168305397 0.8370267301797867" stroke="#000000" stroke-width="1" fill="none"></path></g><g transform="translate(112.5 650) rotate(0 29.5 11.5)"><text x="0" y="18" font-family="Virgil" font-size="20px" fill="#000000" text-anchor="start" style="white-space: pre;" direction="ltr">kubelet</text></g><g transform="translate(84 697.5) rotate(0 72 20)"><path d="M-1.3999659717082977 -1.7574203312397003 C29.92507043480873 -0.8158110988140106, 61.298233062028885 -1.1779393565654754, 144.2813437283039 0.7431089580059052 M0.44941340386867523 -0.36558185517787933 C34.20835441052914 -0.4112839716672898, 65.57873035371304 0.9589509946107864, 143.77061615884304 -0.5873964875936508 M145.48525455594063 -1.2773301899433136 C146.2254199385643 10.879150062799456, 145.37351316213608 23.6237345635891, 144.67074516415596 41.53981897234917 M144.86427842080593 -0.41634927690029144 C144.50850768387318 13.329874232411386, 143.41899628937244 26.728578820824627, 143.13920126855373 40.3844343572855 M142.34023216366768 41.34677240252495 C112.80625067353249 38.916071907281875, 85.53328602910042 41.66704179406166, 0.08947399258613586 38.999096125364304 M143.95515356957912 39.21795715391636 C90.95249098241328 40.83690340340137, 37.31419301927089 40.79463226616382, 0.9586988538503647 39.35237421095371 M1.0917246639728546 38.641254633665085 C0.31284086704254155 27.07318952679634, -0.8621249914169311 12.474088042974472, -1.5044619739055634 -1.8839423954486847 M-0.12415255606174469 39.03196634352207 C-0.13518651425838468 28.07489974796772, -0.8712738364934921 15.97050954401493, 0.11729250848293304 -0.17332302033901215" stroke="#000000" stroke-width="1" fill="none"></path></g><g transform="translate(103.5 702.5) rotate(0 50.5 16)"><text x="0" y="23" font-family="Virgil" font-size="20px" fill="#000000" text-anchor="start" style="white-space: pre;" direction="ltr">kube-proxy</text></g><g transform="translate(95.5 39.99999999999994) rotate(0 36.5 11.5)"><text x="0" y="18" font-family="Virgil" font-size="20px" fill="#000000" text-anchor="start" style="white-space: pre;" direction="ltr">master01</text></g><g transform="translate(107.5 594) rotate(0 29.5 11.5)"><text x="0" y="18" font-family="Virgil" font-size="20px" fill="#000000" text-anchor="start" style="white-space: pre;" direction="ltr">node01</text></g><g transform="translate(116 465.49999999999994) rotate(0 50.5 12)"><path d="M0.8200009167194366 -1.7357490360736847 C35.886703334748745 -0.3018968598544598, 69.74762572348118 0.04483718708157536, 99.48995807766914 0.7663671672344208 M-0.664079561829567 0.21547092497348785 C37.91014373749495 0.09057805880904202, 73.1290050983429 0.3222021852433682, 101.03096352517605 0.6403237730264664 M102.99172046780586 -1.661298543214798 C100.54208045482636 3.071751672029496, 100.76842074871064 9.709312385320665, 101.5369522869587 23.223843783140182 M100.49913750588894 0.8665467649698257 C99.9023038250208 4.184806802868843, 100.19847358286381 9.591094794869424, 101.86860381066799 24.374544754624367 M101.66054084897041 24.967320650815964 C75.77164576202631 22.4452188770473, 45.63986127078533 23.490988568514585, -1.4843823611736298 23.37904378771782 M100.73094283044338 24.341368332505226 C61.68625987917184 23.87549670472741, 21.66414467692374 24.964145977646112, -0.1377653032541275 23.93104662001133 M-0.871780127286911 22.3014757335186 C-1.3129805684089662 19.266073757410048, 0.8793631434440613 11.766041654348372, -1.241038054227829 1.852084368467331 M-0.0023549944162368774 24.32206453382969 C0.5202867537736893 14.039685347676276, -0.03715066611766815 4.420529428124425, -0.28746022284030914 0.0075832754373550415" stroke="#000000" stroke-width="1" fill="none"></path></g><g transform="translate(143.5 466.99999999999994) rotate(0 23 11.5)"><text x="0" y="18" font-family="Virgil" font-size="20px" fill="#000000" text-anchor="start" style="white-space: pre;" direction="ltr">nginx</text></g><g transform="translate(448 10) rotate(0 143 243.49999999999997)"><path d="M-0.6768737205223441 0.9040094659273504 C111.34541746607873 -2.0220689906240636, 220.38056113936193 -1.6324451012148073, 286.692511439674 0.3416485017332434 M0.10569247073852418 0.6871886193015873 C90.70604453942367 2.3763107325620716, 180.70353853107636 1.451995141833884, 285.8796636257325 0.641875335202962 M286.4780203650677 -0.621514614917064 C287.0964154483022 145.53705288010104, 287.24773219789705 291.9155695031709, 285.92695942400866 487.540829920661 M285.74866502291826 -0.16001631151596313 C287.4349562220061 191.34815237415398, 287.56893143191934 382.2626771409153, 286.40606359132994 486.9568362865823 M284.75507278774256 487.63611792203 C198.97469738611696 489.99540312253527, 112.82729863445469 488.1356899486877, 1.222133695912516 487.75016979306537 M285.67953653869466 486.4356241311732 C216.04153656081039 485.98228569980864, 145.140844643003 487.0009656319198, 0.34514699294406764 486.6155124030926 M0.1347583570095778 487.4388240093275 C1.3954587195765218 307.86960890422495, 2.342709541095229 128.15391115373657, -0.057461918278050444 0.3995348002280475 M0.4210968392154337 486.62741216819506 C1.477595644520822 331.02401789841025, 1.3208571633940367 175.59648643393552, -0.2547732904930473 -0.01949738988319636" stroke="#000000" stroke-width="1" fill="none"></path></g><g transform="translate(505 80) rotate(0 61 20)"><path d="M1.194785326719284 1.4825060665607452 C37.93905232846737 0.45733621567487714, 78.34271264076233 1.4609592244029046, 122.45154020190239 0.29708603024482727 M0.9082237631082535 0.869268998503685 C40.98639905452728 0.6316611251235009, 80.26734839379787 -0.3294628182053565, 122.84833540022373 -0.001895800232887268 M120.52582761645317 0.22487381100654602 C120.841772711277 14.535090297460556, 121.72137418985366 27.72937050461769, 123.28279611468315 41.85125187039375 M121.62045682966709 -0.9283751398324966 C122.37082204520702 14.947472617030146, 121.74592456519603 32.07928656041622, 121.89761985838413 40.00818406045437 M122.84072610735893 38.68992832303047 C98.48613825142382 37.53647003442049, 70.9843030810356 40.61156521111727, 0.991462916135788 38.906424790620804 M121.25409187376499 40.26883850991726 C84.3141970694065 38.77565950661898, 48.87102162539959 39.939444010555746, -0.5081585496664047 40.67864905297756 M1.0408479869365692 38.77317741513252 C-0.14806082248687746 32.746219366788864, -1.4893455743789672 23.31621566414833, 0.9476577937602997 0.3893626034259796 M-0.8837421983480453 40.88034354150295 C-0.7295372158288955 30.664115116000175, -0.36557361185550685 19.706782564520836, -0.046245917677879333 -0.3366922289133072" stroke="#000000" stroke-width="1" fill="none"></path></g><g transform="translate(545.5 90.5) rotate(0 16.5 11.5)"><text x="0" y="18" font-family="Virgil" font-size="20px" fill="#000000" text-anchor="start" style="white-space: pre;" direction="ltr">etcd</text></g><g transform="translate(491 141) rotate(0 86 20.5)"><path d="M-1.9496610462665558 -0.08836433291435242 C42.47180274724962 -0.359696541428566, 88.26457391381267 -0.9778691869974137, 172.6397659480572 -1.8579213321208954 M0.48382677137851715 0.8020812124013901 C53.26484768092633 -1.654185408353806, 108.8536231070757 -1.4970384776592258, 172.4878269582987 -0.10489596426486969 M170.88373109698298 0.5837824642658234 C171.46112723693255 14.451081617176534, 172.9805907760561 31.09990542829037, 173.7790357768536 40.835984498262405 M172.40362514555457 -0.6105989366769791 C171.6231149657071 10.818960483372212, 171.74200715854766 19.71981812119484, 171.0527821928263 41.8492299169302 M173.53008100390437 39.540139466524124 C133.62228221893312 41.488573001027106, 98.09165018200875 38.77976314842701, 0.03106805682182312 40.68617084622383 M171.10371221601966 40.29237948358059 C128.13495651185514 41.918566224575045, 82.86165063679219 42.14105129003525, -0.9315637201070786 41.487666711211205 M0.04700586199760437 42.01996448636055 C-1.5076527272164821 27.908456711471082, 0.734283956438303 15.478864219784736, -1.0777700245380402 -1.036854475736618 M-0.9369081109762192 41.508575066924095 C-0.21061020568013195 24.00061894506216, 0.3160883836448192 7.873140728473665, -0.47058187425136566 0.5423480123281479" stroke="#000000" stroke-width="1" fill="none"></path></g><g transform="translate(513.5 150.5) rotate(0 59.5 11.5)"><text x="0" y="18" font-family="Virgil" font-size="20px" fill="#000000" text-anchor="start" style="white-space: pre;" direction="ltr">kube-apiserver</text></g><g transform="translate(465 201.49999999999994) rotate(0 127.5 20.5)"><path d="M-1.159679414066672 0.7398035876601933 C95.76693229384725 0.3312013733725994, 191.3210275131137 -1.4106910776276138, 255.2258205845029 1.4682345354408022 M-0.5963606462314723 -0.12855423940867183 C99.35206896584485 -1.654754097487554, 197.72702945408085 -1.7380091300746054, 255.4582325208352 -0.5957867688104509 M254.7633325755597 -0.1732451617717743 C256.05396098956476 14.612243182957172, 256.55020065173517 25.357967123389244, 253.80771562457093 40.24091365933418 M254.77872766554364 0.963143453001976 C255.06310616806158 8.501845987141133, 254.21826850250372 17.836553770303727, 254.17732013762006 41.420363053679466 M254.25005003406116 42.305594162115455 C196.0048133564741 38.61155644001789, 135.4319400730521 39.24182517676182, -0.684696323570609 39.794164923128484 M255.36377696582534 41.36871735111028 C171.2338734414146 40.09002938779615, 87.53625303925726 39.9356583609464, 0.1291799809142947 41.42065871392042 M-1.2942788898944855 40.8637059032917 C0.9380215920507908 31.604348902404308, -1.087406226247549 20.393118122220038, 1.997601717710495 -1.7674843966960907 M-0.5729445070028305 40.395702466368675 C0.3378864078223705 24.753899250924583, -0.08644954875111582 9.723530972003932, -0.3190969079732895 0.8731552213430405" stroke="#000000" stroke-width="1" fill="none"></path></g><g transform="translate(473 205.99999999999994) rotate(0 115 16)"><text x="0" y="23" font-family="Virgil" font-size="20px" fill="#000000" text-anchor="start" style="white-space: pre;" direction="ltr">kube-controller-manager</text></g><g transform="translate(509 253.99999999999994) rotate(0 72 20)"><path d="M0.4515402019023895 0.29708603024482727 C43.20354275107384 -2.5169075787067414, 85.40693079829217 1.157461279630661, 145.73853799700737 0.9676535427570343 M0.848335400223732 -0.001895800232887268 C55.2377964168787 0.12412556827068322, 110.06684788763523 -0.5080646592378617, 144.11243690550327 -0.558134451508522 M145.28279611468315 1.851251870393753 C145.7317022919655 13.003549426794052, 142.76038213968278 25.576043516397476, 142.143249720335 40.807250291109085 M143.89761985838413 0.008184060454368591 C142.9642732590437 10.406834170222282, 143.0888112038374 19.535571560263634, 143.34496416151524 40.76504050195217 M144.9914629161358 38.906424790620804 C111.34206389784813 40.84913978934288, 77.77490975260734 39.67115269064903, 0.5376770198345184 38.20742443203926 M143.4918414503336 40.67864905297756 C110.05817171633242 41.144542853236196, 78.13928774893283 41.177300135493276, -0.6134112924337387 40.0235029309988 M0.9476577937602997 40.38936260342598 C-0.818914246559143 24.923216551542282, 2.256457495689392 10.15265765786171, 1.7606870830059052 -1.8738162219524384 M-0.046245917677879333 39.66330777108669 C-0.24140407145023346 26.508047744631767, -0.08991910517215729 12.804554685950276, 0.07568944990634918 -0.39456357061862946" stroke="#000000" stroke-width="1" fill="none"></path></g><g transform="translate(516 262.49999999999994) rotate(0 61 11.5)"><text x="0" y="18" font-family="Virgil" font-size="20px" fill="#000000" text-anchor="start" style="white-space: pre;" direction="ltr">kube-scheduler</text></g><g transform="translate(512 313.99999999999994) rotate(0 72 20)"><path d="M0.6397659480571747 -1.8579213321208954 C50.0692396581173 1.6025455844402314, 101.3182629287243 0.7537516009807588, 145.60416242480278 -1.4755923449993134 M0.48782695829868317 -0.10489596426486969 C41.47669364511967 -0.734356239438057, 81.93200625479221 -0.5554044991731644, 144.2918912321329 -0.11833371222019196 M145.77903577685356 -0.1640155017375946 C143.06427484750748 10.894423335790636, 142.39980894327164 24.11426964402199, 142.77880212664604 39.55745533108711 M143.05278219282627 0.8492299169301987 C143.13636808097363 16.27293686568737, 143.3040121048689 32.47018812596798, 143.27006973326206 39.536094292998314 M144.03106805682182 39.68617084622383 C88.32322863936423 37.72080959677696, 34.87829815745353 37.42005028128624, -1.4152410328388214 40.90010383725166 M143.06843627989292 40.487666711211205 C94.39105545580387 41.497678629755974, 43.849065867066386 41.00075756728649, 0.509982243180275 39.35286055505276 M-1.0777700245380402 38.96314552426338 C1.8080701589584351 26.505103796720505, 1.5711555242538453 14.671360164880753, 1.0171501338481903 -1.145889014005661 M-0.47058187425136566 40.54234801232815 C-0.3005985409021378 31.29034535586834, 0.0941878169775009 20.43981669843197, 0.021882668137550354 0.2982736676931381" stroke="#000000" stroke-width="1" fill="none"></path></g><g transform="translate(554.5 322.49999999999994) rotate(0 29.5 11.5)"><text x="0" y="18" font-family="Virgil" font-size="20px" fill="#000000" text-anchor="start" style="white-space: pre;" direction="ltr">kubelet</text></g><g transform="translate(526 369.99999999999994) rotate(0 72 20)"><path d="M0.27937719225883484 1.816447526216507 C47.077557414770126 2.305356901884079, 92.28220126032829 -0.13788898587226872, 143.68191453814507 1.696670800447464 M0.5669089704751968 -0.7370861917734146 C43.2851373821497 -0.40708426296710964, 86.63729218542576 0.032716476321220433, 143.9133774191141 0.6413980573415756 M142.80771562457085 -0.7590863406658173 C142.49905687570572 16.50975403189659, 143.13460928201675 30.962462812662128, 145.92628690600395 39.795239716768265 M143.17732013761997 0.42036305367946625 C142.96607703864575 12.797776743769646, 142.89118261039258 23.601566776633263, 144.80761732161045 40.495731458067894 M143.15291807055473 38.50818374752998 C109.21141852736473 37.98146744132042, 71.9322419822216 40.67414684653282, 0.9123279750347137 38.98368290066719 M144.1598168760538 40.520423993468285 C90.41404234468936 40.72574299514294, 38.56488951742648 40.05510061919689, -0.06814704835414886 40.47382889688015 M1.997601717710495 38.23251560330391 C1.9762410879135133 25.347458571195602, 1.2327041387557984 13.29666057229042, -1.2085950672626495 -0.09249183535575867 M-0.3190969079732895 40.87315522134304 C0.26392219960689545 28.9522053450346, 0.21011541783809662 18.991811498999592, -0.031786784529685974 -0.3798760324716568" stroke="#000000" stroke-width="1" fill="none"></path></g><g transform="translate(545.5 374.99999999999994) rotate(0 50.5 16)"><text x="0" y="23" font-family="Virgil" font-size="20px" fill="#000000" text-anchor="start" style="white-space: pre;" direction="ltr">kube-proxy</text></g><g transform="translate(514 425.99999999999994) rotate(0 87 32.5)"><path d="M1.73853799700737 0.9676535427570343 C37.64024683535099 -3.0559016928076748, 71.75408335924149 0.1163614526391028, 173.99620839953423 0.9756539165973663 M0.11243690550327301 -0.558134451508522 C50.66670145392418 1.1641962614655494, 100.66299786269666 1.923928031027317, 174.92562593519688 0.8895178884267807 M172.143249720335 0.8072502911090851 C172.39130970463157 18.524404950439934, 175.53879448398948 37.72913895547391, 174.01636812090874 63.105564385652556 M173.34496416151524 0.7650405019521713 C172.73532782271505 24.556088753044612, 174.27287541106344 50.53572037816049, 173.4532123953104 65.01553402841093 M174.53767701983452 63.207424432039275 C123.11507260501384 64.60222369760277, 75.97295525074004 62.68580276101829, 1.357298105955124 63.13687255978586 M173.38658870756626 65.02350293099882 C113.82458146810532 65.25839830368758, 52.56105140149593 66.37936664551498, 0.1946813017129898 64.461114987731 M1.7606870830059052 63.126183778047576 C0.36792957559227935 47.72388803213836, -1.8578156255185605 32.647062256932266, -0.6733844578266144 -0.9411637485027313 M0.07568944990634918 64.60543642938138 C0.22929565832018856 42.273011587560184, 0.17562620565295223 18.56959980726242, -0.9959634393453598 -0.15118063986301422" stroke="#000000" stroke-width="1" fill="none"></path></g><g transform="translate(574 428.99999999999994) rotate(0 27 11.5)"><text x="0" y="18" font-family="Virgil" font-size="20px" fill="#000000" text-anchor="start" style="white-space: pre;" direction="ltr">docker</text></g><g transform="translate(520.5 30) rotate(0 48.5 16)"><text x="0" y="23" font-family="Virgil" font-size="20px" fill="#000000" text-anchor="start" style="white-space: pre;" direction="ltr">master02</text></g><g transform="translate(553 459.99999999999994) rotate(0 50.5 12)"><path d="M-1.4755923449993134 -0.3180854618549347 C40.77628768533469 -0.8138936249911786, 79.13488768637181 -1.0198939530551434, 102.1338179409504 -1.4741723835468292 M-0.11833371222019196 -0.08662258088588715 C32.07701080292463 0.6308157907426357, 63.760743379592896 -0.3768178953230381, 100.40385781228542 -0.37954317033290863 M100.55745533108711 1.926286906003952 C100.89210975170135 4.988267785310746, 99.20243442058563 11.642259162664415, 99.35464027523994 24.840726107358932 M100.53609429299831 0.8076173216104507 C101.67934117853642 5.081126382946969, 101.19914374887944 11.098913398385049, 100.57645903527737 23.25409187376499 M101.90010383725166 24.912327975034714 C66.96841395050288 24.64260138437152, 33.10633465945722 24.260636700838806, 0.31963375210762024 25.04084798693657 M100.35286055505276 23.93185295164585 C77.36928295046091 24.709763367325067, 52.2520230948925 23.996654827743768, 0.9988008588552475 23.116257801651955 M-1.145889014005661 22.79140493273735 C0.13236611127853393 14.013791042566298, -0.7163058018684387 6.459047025442121, -0.638193815946579 1.746310442686081 M0.2982736676931381 23.968213215470314 C-0.28518077552318577 15.622381880879402, -0.056485382914543164 9.596023812890053, -0.6284331232309341 0.90470851957798" stroke="#000000" stroke-width="1" fill="none"></path></g><g transform="translate(580.5 461.49999999999994) rotate(0 23 11.5)"><text x="0" y="18" font-family="Virgil" font-size="20px" fill="#000000" text-anchor="start" style="white-space: pre;" direction="ltr">nginx</text></g><g transform="translate(899 13) rotate(0 143 243.49999999999997)"><path d="M-0.5996995279045462 0.5372805196474432 C105.75111862778832 -0.28985714821686726, 210.2083549107883 -1.30542816222558, 287.2878362441082 0.48826734519942994 M-0.6025650375088512 -0.07721918976060747 C59.80788937394974 0.6796867626238084, 120.34551466306335 0.6633816290733553, 285.9748628326707 0.23703264767397042 M286.14357739067196 -0.5192308722595932 C285.05761464871864 149.6380129759079, 285.36775281022756 299.7747608333772, 286.80678488535506 487.05630817445126 M285.85152935664934 0.4143748214033486 C284.09762990529566 121.00985037101375, 284.02456087018936 241.68525771109046, 286.3620978900024 487.0349491061227 M286.79364562430567 487.41827645992976 C216.1589154916742 487.82262056085153, 145.11578384963107 487.73791958983594, 0.48042672554203264 488.50674703946123 M286.75404963816214 487.3257885253337 C220.69218247033643 487.6006756236049, 154.66512421727515 488.5993130097688, 0.3729219669720828 486.5943413094113 M0.05661176347320082 487.72288261487563 C0.5926276921010272 340.31921071873296, -0.8111518619662036 193.16101465845455, 0.29474296142776024 -0.7003041205910446 M0.40734117314182533 487.0730375290441 C-1.636538758038963 358.40131810254536, -1.9575024904352796 229.41963059073174, -0.2869020103752495 -0.25130762366310366" stroke="#000000" stroke-width="1" fill="none"></path></g><g transform="translate(957 81) rotate(0 61 20)"><path d="M0.7100975215435028 1.1174624264240265 C42.5300397247076 1.0083456608653067, 82.68906273841857 2.185552653968334, 122.64531919360161 -1.7972056567668915 M-0.1020568460226059 -0.3860143572092056 C31.723990607261662 1.1640124282240867, 62.72546835839749 0.9383621177077293, 122.31327451765537 0.0742417424917221 M120.76843473315239 -0.8869960010051727 C121.92059656381608 10.7412289083004, 122.91958280801774 23.698830038309097, 122.13355752825737 38.955446511507034 M122.98285688459873 -0.5153235346078873 C123.19822606742382 8.02847771346569, 123.22262057960033 18.293088898062706, 122.08289588987827 39.46750031411648 M122.55281564593315 40.96404483914375 C88.37494516670704 40.97924537926912, 55.229514873027796 41.2747995403409, 1.9913942515850067 38.591918259859085 M122.43057884275913 40.47131882607937 C93.66449156403542 41.20789285928011, 67.61777989566326 41.708713496029375, -0.5361393541097641 40.01723776757717 M1.714607447385788 41.816092759370804 C0.5263959646224976 26.149348944425583, 0.007620978355407704 16.024871975183487, -1.6610534489154816 -0.7110325992107391 M0.17323793470859528 40.36834631860256 C0.3706909030675888 24.116244480013847, -0.09261600077152254 8.33788226544857, -0.5960773080587387 0.7522626966238022" stroke="#000000" stroke-width="1" fill="none"></path></g><g transform="translate(997.5 91.5) rotate(0 16.5 11.5)"><text x="0" y="18" font-family="Virgil" font-size="20px" fill="#000000" text-anchor="start" style="white-space: pre;" direction="ltr">etcd</text></g><g transform="translate(943 141.99999999999994) rotate(0 86 20.5)"><path d="M1.028785914182663 0.5248635113239288 C44.47024940252305 0.7410528177022933, 90.21270776391032 -2.7582233434915544, 171.08574220538142 -0.13800403475761414 M0.7009631544351578 0.19242773950099945 C38.58166210353375 0.6307221233844758, 76.11777181923391 0.7381864368915558, 171.72315181791785 0.2614027112722397 M171.8160354793072 -0.15137836337089539 C172.5625508438051 14.911746366322042, 171.88108664855363 24.951708254218104, 170.3585569560528 42.90282562375069 M172.8176609426737 -0.6886361986398697 C173.2450267775357 11.71501341611147, 172.4858672125638 21.179804998636246, 171.70766271650794 41.58698855340481 M171.4084303081036 41.339402467012405 C110.67574901580812 42.46403518974781, 52.74992197155953 40.420996821522714, -1.5136783421039581 42.23274829983711 M171.0310536772013 40.9920521825552 C103.609543761611 42.30354120016098, 33.98113992512225 41.827906148433684, 0.08427871763706207 41.217979058623314 M0.6135875880718231 39.48646381497383 C-0.2566819249093532 29.123832611739637, -2.012547975629568 15.138429191708564, 1.7454034984111786 0.3722718060016632 M0.44514526426792145 40.607051476836205 C-0.08918919280171395 24.05818387120962, -0.6671048612892627 9.229637920856476, 0.47262872755527496 0.26130782067775726" stroke="#000000" stroke-width="1" fill="none"></path></g><g transform="translate(965.5 151.49999999999994) rotate(0 59.5 11.5)"><text x="0" y="18" font-family="Virgil" font-size="20px" fill="#000000" text-anchor="start" style="white-space: pre;" direction="ltr">kube-apiserver</text></g><g transform="translate(917 202.49999999999994) rotate(0 127.5 20.5)"><path d="M-0.2533574986308813 1.3757835887283087 C91.26925744109451 -1.9935964820236711, 180.75629729842242 -0.6524638109535723, 253.7125706493526 -0.16498509728014468 M0.5491698938533663 -0.02685380415171385 C66.9098536837861 -0.3366157212325185, 133.0894913967535 -0.1853335101672261, 255.13763394715036 -0.4977371025964618 M255.81502172350878 1.913615494966507 C255.09584480151528 9.43710470944643, 253.3208442293107 22.86614201962948, 254.295684069395 42.965713769197464 M255.84205545485014 0.8588610738515854 C255.41813687637443 9.65467382222414, 255.04290370300407 20.961335569620132, 255.52446140348906 41.276407822966576 M254.43134895144993 41.51323544248044 C167.81807227447328 40.21162977240391, 76.19335039791167 42.34621269371815, 1.6110885557323695 41.69607375720442 M255.2836358018085 41.3983890998438 C166.04800849504912 40.99755152438902, 78.03086235741821 41.15981070994161, 0.054268296878039836 41.692958599860965 M0.09481260180473328 41.69910171627998 C-1.7868389044702053 24.265977244079114, 1.6196180428564548 9.326291492581369, 1.9323475062847137 0.34647586941719055 M-0.01816163957118988 40.319496259093285 C-0.7785868664085864 27.942042790353298, 0.2901191692054272 13.64086800813675, -0.41018806397914886 -0.18803633749485016" stroke="#000000" stroke-width="1" fill="none"></path></g><g transform="translate(925 206.99999999999994) rotate(0 115 16)"><text x="0" y="23" font-family="Virgil" font-size="20px" fill="#000000" text-anchor="start" style="white-space: pre;" direction="ltr">kube-controller-manager</text></g><g transform="translate(961 254.99999999999994) rotate(0 72 20)"><path d="M0.6453191936016083 -1.7972056567668915 C46.06475948691368 -1.3634947979450227, 92.36527277827263 -1.4296044552326204, 143.2279712855816 1.4019263088703156 M0.3132745176553726 0.0742417424917221 C45.69411126673222 0.30924321353435524, 92.11219471991063 -0.5679421311616897, 143.5565019994974 -0.09198226034641266 M144.13355752825737 -1.0445534884929657 C142.52156130075454 13.600068897008898, 143.45868841409683 25.360200315713886, 142.96935293078423 41.635321885347366 M144.08289588987827 -0.532499685883522 C144.044484898448 9.83244375884533, 144.8612835854292 18.767318233847618, 144.48202241957188 39.70421515405178 M145.991394251585 38.591918259859085 C96.84262389540672 41.689917072057725, 54.7057859122753 41.31832645773888, 0.9426376521587372 38.06210735440254 M143.46386064589024 40.01723776757717 C100.99872728884219 40.92771591842175, 57.89603594839572 41.56704058349133, 0.9080463796854019 40.30679379403591 M-1.6610534489154816 39.28896740078926 C1.726440978050232 31.399344176054, 1.913384985923767 22.400620609521866, 0.7366926372051239 0.8902905285358429 M-0.5960773080587387 40.7522626966238 C0.4798933833837509 29.83310191333294, -0.4029234081506729 18.955551847815514, -0.7020472139120102 -0.5210627466440201" stroke="#000000" stroke-width="1" fill="none"></path></g><g transform="translate(968 263.49999999999994) rotate(0 61 11.5)"><text x="0" y="18" font-family="Virgil" font-size="20px" fill="#000000" text-anchor="start" style="white-space: pre;" direction="ltr">kube-scheduler</text></g><g transform="translate(964 314.99999999999994) rotate(0 72 20)"><path d="M-0.9142577946186066 -0.13800403475761414 C53.86214584708214 1.08987438082695, 110.13778654932976 2.6959143817424773, 144.384855479002 1.358826905488968 M-0.2768481820821762 0.2614027112722397 C42.89187079966069 -0.7226907426118852, 84.99969195425511 -0.19889036953449257, 143.92431081831455 0.4075108617544174 M142.35855695605278 1.9028256237506866 C143.32239557504653 17.792944759130478, 142.9960644364357 33.289783865213394, 142.62272760272026 41.684110909700394 M143.7076627165079 0.586988553404808 C144.55761975944043 15.711852118372917, 144.5151807755232 30.575103744864464, 144.1697012335062 39.64824257791042 M142.48632165789604 41.23274829983711 C98.22149371504784 39.847338832616806, 49.3992622077465 37.048288501501084, -0.01589563488960266 40.701808243989944 M144.08427871763706 40.217979058623314 C93.76977020800113 40.88212610900402, 44.31330918371677 40.33161617934704, -0.7567680925130844 40.04740630090237 M1.7454034984111786 40.37227180600166 C2.26455819606781 26.948272436857224, 1.0689033269882202 14.093883663415909, -0.7858970463275909 -0.03632327914237976 M0.47262872755527496 40.26130782067776 C-0.17175714075565338 30.53397862613201, -0.46361629068851473 20.922967180609703, -0.21984325349330902 -0.0536893755197525" stroke="#000000" stroke-width="1" fill="none"></path></g><g transform="translate(1006.5 323.49999999999994) rotate(0 29.5 11.5)"><text x="0" y="18" font-family="Virgil" font-size="20px" fill="#000000" text-anchor="start" style="white-space: pre;" direction="ltr">kubelet</text></g><g transform="translate(978 370.99999999999994) rotate(0 72 20)"><path d="M-1.5927617847919464 -0.2041136920452118 C29.488090556859973 1.5012892138957978, 60.90509402155877 1.4581898105144502, 143.93355485796928 0.6265490353107452 M0.17027582228183746 -0.6157826334238052 C43.82558309137821 -0.46840216457843775, 88.46247300207615 0.031090957522392326, 144.95680774748325 0.066778764128685 M143.29568406939507 1.965713769197464 C142.64106432199478 11.546214908361435, 142.2944389939308 21.50589695572853, 145.71772214770317 40.165791779756546 M144.5244614034891 0.2764078229665756 C144.36508750617503 9.574216410517693, 144.05276632010936 19.388245090842247, 144.3174783140421 40.9956971257925 M145.99318143725395 40.861157685518265 C111.88082618117332 38.949686130285265, 77.86048142313957 41.58938701987267, 0.9857456386089325 38.92772129178047 M144.06713880598545 40.857303723692894 C101.45982252657413 40.620683638453485, 56.34678420126437 40.36129614531994, 0.34955085813999176 39.16947327554226 M1.9323475062847137 40.34647586941719 C0.38761193752288814 30.31235572695732, -1.1349777460098267 18.807807117700573, -1.3610074818134308 -1.1921546161174774 M-0.41018806397914886 39.81196366250515 C-0.8910987049341201 24.46988646686077, -0.40889474451541896 9.928209051489826, 0.36015428602695465 -0.9924591928720474" stroke="#000000" stroke-width="1" fill="none"></path></g><g transform="translate(997.5 375.99999999999994) rotate(0 50.5 16)"><text x="0" y="23" font-family="Virgil" font-size="20px" fill="#000000" text-anchor="start" style="white-space: pre;" direction="ltr">kube-proxy</text></g><g transform="translate(966 426.99999999999994) rotate(0 87 32.5)"><path d="M-0.7720287144184113 1.4019263088703156 C51.384220376610756 1.5364058175683022, 101.9322846531868 0.8041279473900795, 174.14848348498344 -0.5536963641643524 M-0.44349800050258636 -0.09198226034641266 C56.672717994451524 1.4789726439118387, 114.4536220997572 1.1382405462861063, 173.47772325575352 -0.8207215219736099 M172.96935293078423 1.6353218853473663 C172.39382492527366 27.368294186890132, 175.48881947025657 51.53415833413602, 172.93500062823296 64.41532543301584 M174.48202241957188 -0.2957848459482193 C174.51060114577413 22.963668175041683, 174.65837822631002 47.62654832005502, 173.29595912992954 64.24316082894804 M174.94263765215874 63.062107354402556 C111.05919415652752 66.45101543039085, 49.13592522144317 64.67692847818138, 0.03447553515434265 65.16855743527414 M174.9080463796854 65.30679379403593 C117.25039628744125 66.53911478012802, 62.36387961804866 65.66118175476791, -0.35551629960536957 65.8727017492056 M0.7366926372051239 65.89029052853586 C-1.413909985870123 44.25379335135222, -1.9890204213559628 22.38807864487171, 1.5045253932476044 0.9452574551105499 M-0.7020472139120102 64.478937253356 C0.0467789880931378 43.74780979007483, 0.6267765276134014 21.610539138317108, -0.9976991266012192 0.06545983254909515" stroke="#000000" stroke-width="1" fill="none"></path></g><g transform="translate(1026 429.99999999999994) rotate(0 27 11.5)"><text x="0" y="18" font-family="Virgil" font-size="20px" fill="#000000" text-anchor="start" style="white-space: pre;" direction="ltr">docker</text></g><g transform="translate(972.5 31) rotate(0 48.5 16)"><text x="0" y="23" font-family="Virgil" font-size="20px" fill="#000000" text-anchor="start" style="white-space: pre;" direction="ltr">master03</text></g><g transform="translate(1005 460.99999999999994) rotate(0 50.5 12)"><path d="M1.358826905488968 -0.06644514203071594 C27.027804027497773 -0.045868531912565125, 52.2488136202097 0.32845340564847003, 101.34055164456367 -1.2315652668476105 M0.4075108617544174 0.9568077474832535 C25.887448959052563 -0.4458306707441807, 50.820618867874146 1.0278588853776456, 100.64784203469753 0.982856884598732 M102.6841109097004 1.7177221477031708 C101.36203040599823 4.8982241451740265, 100.6115640592575 13.100424140691757, 102.04892280697823 24.55281564593315 M100.64824257791042 0.31747831404209137 C101.92470876276494 7.652812936902045, 100.17217246592045 17.33008176386356, 101.99659071862698 24.430578842759132 M101.70180824398994 24.985745638608932 C64.86740114837885 24.026448239535092, 31.047917148470873 24.427930821627378, 0.1342776119709015 25.714607447385788 M101.04740630090237 24.34955085813999 C60.6982048407197 22.880147926956415, 22.930164879560465 23.421800129562616, 0.9661737531423569 24.173237934708595 M-0.03632327914237976 22.63899251818657 C-1.2989894795417785 17.420494228601456, 0.8384225916862488 8.354553312063217, -0.8203761279582977 -0.3760726749897003 M-0.0536893755197525 24.360154286026955 C-0.8674041336774826 17.487214186787604, 0.19051489174366 12.781403604149817, 0.6322747319936752 0.5335880666971207" stroke="#000000" stroke-width="1" fill="none"></path></g><g transform="translate(1032.5 462.49999999999994) rotate(0 23 11.5)"><text x="0" y="18" font-family="Virgil" font-size="20px" fill="#000000" text-anchor="start" style="white-space: pre;" direction="ltr">nginx</text></g><g transform="translate(69 749) rotate(0 87 32.5)"><path d="M1.5054495632648468 1.5558683574199677 C57.7714549869299 -0.9293185058236122, 116.35609444379809 -0.49148948818445204, 175.90065696835518 -1.3874805271625519 M-0.4062560945749283 -0.38794122636318207 C59.9580802500248 0.6439919337630271, 121.16578512489797 -0.0031833782792092258, 174.82826147973537 -0.990111693739891 M172.3689720928669 0.6518947780132294 C172.96676461473106 20.461469344794757, 172.90132634416221 43.26051534712316, 174.25761821866035 64.4890329539776 M174.16667471826077 -0.4446748346090317 C173.5444266371429 15.80566864460707, 174.94083138033747 32.265622109174735, 173.9774709790945 65.50163187086584 M174.87119701504707 66.55111333727838 C118.85843274891377 65.5019992247224, 59.93969314098358 62.60175451189281, -1.9058978259563446 65.40604326128961 M174.5108305066824 65.2993880659342 C120.56721903085707 64.72390038996936, 68.4386557728052 65.8116799119115, -0.9678172022104263 65.49583210051061 M-1.5298678576946259 64.74864122271539 C-1.2801239587366582 42.622826822102084, 1.4388005636632442 22.304843232035644, 1.8993666470050812 0.3274175822734833 M0.7643948644399643 65.10450138151647 C0.6288997299969197 42.625537849962726, 0.6531426079571248 20.837629616260536, 0.36495552957057953 0.7683679014444351" stroke="#000000" stroke-width="1" fill="none"></path></g><g transform="translate(129 752) rotate(0 27 11.5)"><text x="0" y="18" font-family="Virgil" font-size="20px" fill="#000000" text-anchor="start" style="white-space: pre;" direction="ltr">docker</text></g><g transform="translate(108 783) rotate(0 50.5 12)"><path d="M-0.6785189807415009 -0.7897193729877472 C30.566463313996792 -1.1376038758456708, 64.12129057943821 -2.173194047659636, 101.9274733364582 -1.9345758259296417 M-0.3109377771615982 0.7225586324930191 C31.383797149360184 0.4672039590775967, 62.340357637405404 -0.5982910551130771, 101.31843148171902 -0.9939459413290024 M100.61282947659492 -1.1083352863788605 C100.3516678571701 5.486024743318558, 101.06189486980438 10.219270271062852, 100.10972145199776 25.36420938372612 M100.10105858743191 -0.800926074385643 C101.53746526300907 5.95382688343525, 101.01747291147709 14.304420295357705, 101.27203856408596 23.573526993393898 M102.79190376400948 24.9865925014019 C73.31950419098138 22.869660023897886, 44.11984021365642 25.18935549661517, 0.11426571011543274 23.720092982053757 M100.76133070886135 23.194647446274757 C68.45477870851755 24.58480891481042, 33.28798195719719 24.79821404710412, 0.31132374703884125 23.90859331190586 M-1.3395383059978485 23.146431177854538 C1.562970359325409 17.85343032479286, 2.0829507899284363 11.33017434477806, 0.7741139233112335 -0.7468078434467316 M0.3861871808767319 23.64140810072422 C0.22697529137134553 18.063063338398933, 0.1815007621049881 13.155754342675209, -0.1130293756723404 -0.04099307954311371" stroke="#000000" stroke-width="1" fill="none"></path></g><g transform="translate(135.5 784.5) rotate(0 23 11.5)"><text x="0" y="18" font-family="Virgil" font-size="20px" fill="#000000" text-anchor="start" style="white-space: pre;" direction="ltr">nginx</text></g><g transform="translate(469 566) rotate(0 143 132.5)"><path d="M-0.4085535593910574 -0.5053965657361625 C101.53499380291802 -0.22030550180709296, 202.48641205034673 -0.3786651382279149, 284.7019350743892 -0.914713757420504 M-0.07591856826217769 0.446636216419965 C80.42431476223938 -0.34949649974949737, 160.6719265789897 -0.6148556662345208, 285.25882527220546 0.7230658300508319 M285.5176311706147 -0.9453792568802832 C282.94399290128473 72.35579156430724, 284.8512906344848 145.41747727758462, 285.8890506670899 263.9635990984512 M286.25266186924813 0.3584984775345325 C286.26457470105277 77.07456103474978, 286.1552539800826 154.36281011857633, 285.76119368290017 265.3254512750886 M285.85372699526056 265.1194826236674 C173.4421985914621 266.23908102674596, 62.46950793606449 266.85198996144334, 1.1199900238895057 265.3688447703376 M286.4024262022819 264.8171295483601 C209.0033268961261 266.54481857133857, 132.29960926332848 267.32691333550537, 0.5253639435673891 265.65865274144653 M-0.684895669198513 266.12000011857754 C2.0044025994746084 175.5942481891747, -0.6238040745518804 87.50540762061166, 1.269449605597019 -1.0479442262864112 M-0.44206735464406005 265.1989159765733 C-1.6236079429603931 186.22104680316235, -0.698622608754766 107.57802917198777, -0.2797288754646778 -0.7171555554625987" stroke="#000000" stroke-width="1" fill="none"></path></g><g transform="translate(533 642) rotate(0 72 20)"><path d="M-0.6679580509662628 0.9969218075275421 C46.98152298331261 1.6113352572917938, 95.34117857813835 -1.3268141949176788, 142.79106733202934 -0.38881561160087585 M0.5902973562479019 0.24368344247341156 C40.31106101572514 0.39831374347209936, 79.42795809805394 -0.8350880318880081, 144.95564092695713 -0.2568148523569107 M142.80578443408012 -1.979582518339157 C143.66473261117935 9.590788692235947, 144.1286846756935 18.181942373514175, 142.6908046901226 39.83319690823555 M144.4528600126505 0.005670651793479919 C143.95873288810253 12.363490149378777, 143.9566991776228 24.69016645848751, 144.41111434996128 40.900786980986595 M144.15791437029839 38.68456867337227 C101.22205981612206 39.324909328222276, 60.4397391974926 41.34104454398155, 0.4874841868877411 39.3491852581501 M143.75830902159214 39.334781274199486 C96.27139450609684 39.82263621032238, 50.3495587259531 41.4602366322279, 0.8705092817544937 40.35353957116604 M1.4147989451885223 41.75988319516182 C-0.5781481027603149 27.605338782072067, 0.40710523128509524 19.934467464685437, -1.3237769901752472 -0.03909274935722351 M0.2512732893228531 39.21294890344143 C-0.04409677088260655 26.473611041903496, 0.3841368526220321 11.831059679389, -0.9059203714132309 0.3177515119314194" stroke="#000000" stroke-width="1" fill="none"></path></g><g transform="translate(564.5 649.5) rotate(0 29.5 11.5)"><text x="0" y="18" font-family="Virgil" font-size="20px" fill="#000000" text-anchor="start" style="white-space: pre;" direction="ltr">kubelet</text></g><g transform="translate(536 697) rotate(0 72 20)"><path d="M-1.5874288380146027 1.2225601971149445 C37.51552433371544 -2.4333729565143587, 77.41556612849236 -1.1065993130207064, 143.48161241412163 0.9128420650959015 M0.8434516340494156 0.25382719933986664 C42.24787389338017 -1.3304787331819534, 84.46591004431248 -0.6077190095186233, 143.29026187956333 0.23118840157985687 M143.5722572505474 0.42974117398262024 C143.7973662018776 10.641177982091904, 142.45196157693863 21.395858198404312, 144.24795743823051 41.1535008251667 M143.7280327230692 -0.1324247270822525 C143.90714301764964 12.974999949336054, 144.59225835502147 27.454113468527797, 143.88835920393467 40.987133130431175 M142.8144323527813 39.46410110592842 C101.81640204787254 40.53312576651573, 60.871319741010666 38.40207470297813, 0.5215961635112762 41.96840885281563 M143.22688688337803 39.056747540831566 C93.40165678560734 39.736432997584345, 43.15273589193821 39.3956246060133, -0.2913602441549301 39.74965439736843 M-0.6782863438129425 38.43989780545235 C0.024007201194763184 31.333924025297165, -1.6067367792129517 19.421584278345104, 0.953895777463913 1.5030739605426788 M0.25651802122592926 40.38140259683132 C0.5842423290014267 29.880344077944756, -1.0064296871423721 20.785154089331627, 0.18323244154453278 0.8131857961416245" stroke="#000000" stroke-width="1" fill="none"></path></g><g transform="translate(555.5 702) rotate(0 50.5 16)"><text x="0" y="23" font-family="Virgil" font-size="20px" fill="#000000" text-anchor="start" style="white-space: pre;" direction="ltr">kube-proxy</text></g><g transform="translate(559.5 593.5) rotate(0 29.5 11.5)"><text x="0" y="18" font-family="Virgil" font-size="20px" fill="#000000" text-anchor="start" style="white-space: pre;" direction="ltr">node02</text></g><g transform="translate(521 748.5) rotate(0 87 32.5)"><path d="M-1.7155892550945282 -1.2089326679706573 C38.00055349767208 1.0447632202506065, 77.69158028364181 1.3624750503897667, 175.1805947124958 0.4873668849468231 M-0.9795745760202408 0.9556409269571304 C66.61924358010292 -1.5671045628190041, 133.9833052664995 -1.1620337811112404, 173.40289221704006 -0.9897912591695786 M173.85984733700752 -1.3091953098773956 C173.9728627897799 18.3577935025096, 175.29316670671105 36.85800375044347, 174.90572002530098 65.01134130358697 M173.69833670556545 0.4111143499612808 C174.81471090838312 17.620571903884418, 174.9010570578277 35.36776444315912, 174.0789571851492 64.34228433668615 M175.4802363216877 65.48748418688776 C131.46362378895282 65.19489747911693, 92.19728591442107 65.73703557878734, -0.4833819568157196 63.669562548398986 M174.69434796273708 65.87050928175451 C135.60570780038833 65.16198541194201, 96.25399085581303 65.02076102763415, 0.7073994725942612 65.87994159758092 M1.6035855114459991 63.67622300982477 C0.4679404638707638 48.65832639485598, 2.010107173770666 29.292010590434074, 0.5025465786457062 -1.5741021931171417 M-0.3533572107553482 64.09407962858678 C0.06983982399106026 44.01586530357601, 0.5652741082012653 21.956831276416786, -0.839222326874733 -0.10094057023525238" stroke="#000000" stroke-width="1" fill="none"></path></g><g transform="translate(581 751.5) rotate(0 27 11.5)"><text x="0" y="18" font-family="Virgil" font-size="20px" fill="#000000" text-anchor="start" style="white-space: pre;" direction="ltr">docker</text></g><g transform="translate(560 782.5) rotate(0 50.5 12)"><path d="M-0.38881561160087585 -0.5183875858783722 C22.139380489289763 0.40983524158596996, 43.63367156088353 1.0978778822720052, 102.68690326809883 0.5076543986797333 M-0.2568148523569107 -0.7097381204366684 C35.50785568207502 -1.2698646749556064, 69.95622677803038 -1.9549885953962802, 100.7861286252737 0.21487058699131012 M100.83319690823555 0.24795743823051453 C102.13668250560761 7.881782799959183, 101.88890170574189 14.498243659734726, 100.45606544613838 23.735150545835495 M101.9007869809866 -0.1116407960653305 C101.91473393976689 6.445736673474313, 101.00655799448491 12.427079597115519, 100.40721617639065 23.73205055296421 M100.3491852581501 24.521596163511276 C74.56476328521967 25.309913777559995, 43.70932690799236 22.91574206277728, -1.5462262332439423 22.11349508166313 M101.35353957116604 23.70863975584507 C67.81816524416209 24.44662974610925, 35.844421166181576 25.75915597215295, -0.33914317190647125 23.219948902726173 M-0.03909274935722351 24.953895777463913 C1.310643699169159 15.314788967370987, 0.3101163172721863 7.289177030324936, 0.5130360424518585 0.7628051936626434 M0.3177515119314194 24.183232441544533 C0.897991526722908 14.448161605000495, -0.7544165962934494 6.212251535058019, -0.5022658258676529 -0.8736804574728012" stroke="#000000" stroke-width="1" fill="none"></path></g><g transform="translate(587.5 784) rotate(0 23 11.5)"><text x="0" y="18" font-family="Virgil" font-size="20px" fill="#000000" text-anchor="start" style="white-space: pre;" direction="ltr">nginx</text></g><g transform="translate(927 561) rotate(0 143 132.5)"><path d="M-0.08932035447059869 1.203609349730265 C70.61741020526317 -2.7863094202367016, 143.83285331054137 -3.583792192525596, 286.3421334020384 -0.5807278034645438 M-0.05472039286271929 0.7410825236767946 C71.68673016973875 -2.214142914998261, 144.27912304169692 -1.7905272977228324, 285.3262138095621 0.12959257179214356 M286.1879381751876 -0.13906551995229718 C285.67379638869807 72.07980223853399, 286.62600592576166 141.70830262836793, 285.1799492395034 265.09626806783155 M285.278540045192 -0.11853453681111334 C286.153796749758 54.64539332605578, 285.43839410317446 108.2884424630926, 285.23162575387886 264.34922948509296 M287.5003718992884 264.90492655054896 C191.97376960666656 263.90870275001674, 101.37206880880797 264.3475310320003, 1.331426716026914 266.21476133517154 M286.54317106393086 265.6953886072702 C219.45658962803952 262.6572751226545, 152.68672890814548 262.9625981559577, 0.40939810987375375 265.41471611596904 M-0.7757958126358985 263.9204562525392 C1.4129651972033619 191.62917102707294, 1.745021125868523 116.52023346420431, -0.6261485735154151 -0.3080321626067161 M-0.29881799287867544 264.2917057534569 C-1.2249120205106379 169.44395545234232, -1.3306700894574761 72.68601365977267, -0.4216630512816905 0.3448355815131664" stroke="#000000" stroke-width="1" fill="none"></path></g><g transform="translate(991 637) rotate(0 72 20)"><path d="M1.5907519161701202 -0.8142545521259308 C52.40307241082192 1.8901808369159698, 104.63363631367685 0.53717733502388, 143.2324803173542 -0.9426009953022003 M0.9794527143239975 -0.8380268663167953 C40.69809754788876 -0.37494075953960415, 82.35093122422695 -0.7863677805662155, 144.17127619683743 -0.32670246064662933 M143.82433059811592 0.26230165362358093 C145.60255044698715 12.447233825922012, 144.06915563344955 20.92827805876732, 144.12160709500313 38.096082895994186 M143.85026560723782 0.17112697660923004 C144.35363889038564 11.302365973591805, 143.5577523738146 23.09926964342594, 143.17793808877468 40.24948324263096 M143.87434604763985 38.55806562304497 C89.58497744202614 43.069902740716934, 35.36424286961555 43.187419258356094, 1.6054909527301788 38.65377923846245 M144.91906128823757 40.00744451582432 C95.99536064565181 40.749351809620855, 49.040028533339495 41.57483274757862, 0.5481101125478745 39.82324279844761 M-1.3636939227581024 41.13065454363823 C2.2086500406265257 30.53761652112007, 1.8385242700576783 17.18404993414879, -0.3891102969646454 1.2568552196025848 M-0.8947266489267349 40.64992965757847 C0.7421571403741837 25.199723795056343, -0.021594366431236245 8.834127917885777, 0.4356008619070053 0.8892051130533218" stroke="#000000" stroke-width="1" fill="none"></path></g><g transform="translate(1022.5 644.5) rotate(0 29.5 11.5)"><text x="0" y="18" font-family="Virgil" font-size="20px" fill="#000000" text-anchor="start" style="white-space: pre;" direction="ltr">kubelet</text></g><g transform="translate(994 692) rotate(0 72 20)"><path d="M-0.8814856708049774 1.8051845729351044 C40.4145575106144 1.0384443485736847, 83.9325550377369 -0.3563377177715302, 143.70735576748848 1.7702524363994598 M-0.3948639780282974 -0.4790834039449692 C42.3235817283392 0.3162482625246048, 84.48842330873013 0.880056226849556, 143.74552212655544 0.09857095777988434 M145.5631220638752 1.465145319700241 C143.9945933699608 11.438913017511368, 144.08647321462632 23.04570683836937, 144.01747253537178 39.41675493121147 M144.47028790414333 -0.7325790971517563 C143.61450763046741 7.383948519825935, 143.1180443316698 16.95862127840519, 144.8056050390005 39.36083759367466 M144.3856900036335 41.64216539263725 C87.48829451203346 40.72148915886879, 30.65074399113655 37.61558648705483, 0.5776198208332062 38.28637143969536 M143.3542233556509 39.71560062468052 C90.22024210393428 40.5518016654253, 37.4730864137411 39.83396290123463, -0.24687613546848297 39.0420648008585 M1.825475960969925 41.55011197924614 C1.7280889749526978 29.169031888246536, -0.1163715124130249 21.176837295293804, 1.658305436372757 0.061719149351119995 M0.7545009702444077 40.51633466780186 C0.3486401230096817 28.97723300755024, 0.7934915214776993 19.908971801400185, 0.8200121968984604 0.808756485581398" stroke="#000000" stroke-width="1" fill="none"></path></g><g transform="translate(1013.5 697) rotate(0 50.5 16)"><text x="0" y="23" font-family="Virgil" font-size="20px" fill="#000000" text-anchor="start" style="white-space: pre;" direction="ltr">kube-proxy</text></g><g transform="translate(1017.5 588.5) rotate(0 29.5 11.5)"><text x="0" y="18" font-family="Virgil" font-size="20px" fill="#000000" text-anchor="start" style="white-space: pre;" direction="ltr">node03</text></g><g transform="translate(979 743.5) rotate(0 87 32.5)"><path d="M0.4521810710430145 -0.7675196826457977 C43.5884736686945 1.3912232366204262, 90.83240176439286 1.5392249074578286, 175.958905428648 -1.6760537326335907 M-0.8905104249715805 0.17127619683742523 C45.002664321661 -0.5415920934081078, 90.75730452239515 -0.1684112271666527, 173.91216529905796 0.13115082681179047 M172.96410104632378 0.12160709500312805 C172.57225512489677 24.597619242966182, 173.89292716011406 47.33757792413236, 173.70053121447563 65.34225395321847 M173.02937950193882 -0.8220619112253189 C173.77330682948232 23.362476415932182, 172.88466118052602 46.10522702336312, 173.93717302381992 64.2790328115225 M175.7596819102764 66.6054909527302 C117.09827620685101 66.41775097459556, 61.17536537647247 67.27589668840172, 1.8381225764751434 65.01488903164865 M174.54108156263828 65.54811011254789 C132.85975641012192 64.33161574333907, 91.11509202420712 64.08849411934615, -0.6818469613790512 65.56532727181913 M-0.7909591495990753 64.61088970303537 C0.7530688263475893 41.22550856322051, -0.44206724390387553 13.379464581608772, -1.7894532978534698 1.2998593151569366 M-0.5326503366231918 65.43560086190702 C0.5535875789821147 41.41575589030982, 0.4731389515101909 15.675802886486053, -0.6065157502889633 0.878217801451683" stroke="#000000" stroke-width="1" fill="none"></path></g><g transform="translate(1039 746.5) rotate(0 27 11.5)"><text x="0" y="18" font-family="Virgil" font-size="20px" fill="#000000" text-anchor="start" style="white-space: pre;" direction="ltr">docker</text></g><g transform="translate(1018 777.5) rotate(0 50.5 12)"><path d="M-0.9426009953022003 -0.2926442325115204 C22.296079196035862 0.24295487806200977, 43.0105589479208 -1.2884562928974628, 100.2102720439434 -0.9581668078899384 M-0.32670246064662933 -0.2544778734445572 C32.06515349894762 -0.054285966008901676, 63.84533038139344 -0.0418381319940091, 101.7815610319376 0.7325726598501205 M99.09608289599419 0.017472535371780396 C100.29244705677033 5.412957209348679, 100.57622334003449 14.813599354028703, 101.94057580828667 22.534841805696487 M101.24948324263096 0.8056050390005112 C100.12788867413998 7.4100475996732715, 100.70422410428525 12.11615947186947, 101.19284500181675 24.821082696318626 M99.65377923846245 24.577619820833206 C64.10974807590246 26.246538465768097, 32.484875848889345 24.825661962777374, -1.2915532886981964 23.431201249361038 M100.82324279844761 23.753123864531517 C72.18874987214804 24.06359345421195, 44.61152318120003 25.11891848549247, 0.9127379804849625 24.77505598962307 M1.2568552196025848 25.658305436372757 C0.15663424730300904 14.29863809943199, -1.6945381999015807 7.407018858194348, 1.5090019404888153 1.032669335603714 M0.8892051130533218 24.82001219689846 C0.936592566370964 16.306516787409784, -0.4786796694993973 10.522620376944541, 0.45149387419223785 0.06080113351345062" stroke="#000000" stroke-width="1" fill="none"></path></g><g transform="translate(1045.5 779) rotate(0 23 11.5)"><text x="0" y="18" font-family="Virgil" font-size="20px" fill="#000000" text-anchor="start" style="white-space: pre;" direction="ltr">nginx</text></g><g><g transform="translate(251 467.49999999999994) rotate(0 21.952761328388988 -153.17408141815267)"><path d="M-10.149986871445888 0.993870288133621 C-5.736414343124523 1.3008300125598906, 8.57660792136502 1.6725246409575145, 14.068434649495487 0.9037783920764924 C19.560261377625952 0.1350321431954702, 17.690631545452845 -0.35924612879753104, 22.800973497336916 -3.6186072051525118 C27.911315449220986 -6.877968281507492, 40.753919075232595 -15.431253308057785, 44.73048636079991 -18.65238806605339 C48.70705364636722 -21.873522824048997, 45.503852334834654 -20.93509845932325, 46.66037721074081 -22.945415753126145 C47.81690208664697 -24.95573304692904, 49.638830255943795 -24.897799811760585, 51.66963561623686 -30.714291828870774 C53.700440976529926 -36.53078384598096, 56.854149034245125 -48.58179226120313, 58.84520937249921 -57.844367855787276 C60.8362697107533 -67.10694345037142, 62.40660052989815 -77.78492737015088, 63.61599764576138 -86.28974539637565 C64.82539476162462 -94.79456342260042, 65.9217266030618 -99.34047336777051, 66.10159206767862 -108.87327601313591 C66.28145753229545 -118.4060786585013, 65.32916089380667 -135.15044848322867, 64.69519043346232 -143.48656126856804 C64.06121997311796 -151.8226740539074, 63.25045850341804 -152.55228761235873, 62.29776930561246 -158.88995272517204 C61.345080107806886 -165.22761783798535, 61.79786699860303 -170.15217565099397, 58.979055246628846 -181.5125519454479 C56.160243494654665 -192.87292823990185, 49.18661636941755 -215.22504749496775, 45.38489879376736 -227.05221049189566 C41.583181218117176 -238.87937348882357, 38.89927815127991 -246.2479213734468, 36.16874979272773 -252.47552992701532 C33.43822143417555 -258.70313848058385, 32.338492604823244 -258.599898848931, 29.001728642454296 -264.4178618133068 C25.664964680085347 -270.2358247776826, 20.353827164488646 -281.56216481725374, 16.14816601851404 -287.3833077132702 C11.942504872539434 -293.20445060928665, 7.657274826909179 -296.0846541742484, 3.7677617666066654 -299.34471918940545 C-0.12175129369584736 -302.6047842045625, -4.066614784674332 -305.6860518157482, -7.188912343301037 -306.94369780421255 C-10.311209901927741 -308.2013437926769, -12.478001181124862 -307.5204593042532, -14.96602358515356 -306.89059512019156 C-17.454045989182255 -306.2607309361299, -21.179295015823996 -303.94406153559686, -22.11704676747322 -303.1645126998425 M-10.99507654893432 0.4700482440646736 C-6.111493755203008 0.532529572015628, 10.279394929138316 0.2941768656826267, 16.31454539733388 -0.7443127008620649 C22.349695865529444 -1.7828022674067565, 20.455171251349594 -2.9031027867738155, 25.21582626023907 -5.760889155203476 C29.976481269128545 -8.618675523633136, 41.029181901997546 -15.009342536861077, 44.878475450670734 -17.89103091144003 C48.72776899934392 -20.772719286018983, 46.95868877113054 -20.76548202080963, 48.31158755227818 -23.051019402677195 C49.66448633342583 -25.33655678454476, 51.653933746976286 -26.1171841821416, 52.99586813755662 -31.604255202645437 C54.337802528136955 -37.091326223149274, 54.7012063723879 -46.777022771670794, 56.36319389576018 -55.97344552570023 C58.025181419132466 -65.16986827972966, 61.54462974531781 -77.74666984750269, 62.967793277790335 -86.78279172682204 C64.39095681026286 -95.8189136061414, 64.53060235434296 -100.70908327503442, 64.90217509059532 -110.19017680161633 C65.27374782684768 -119.67127032819825, 65.6303273585769 -135.20402756028807, 65.19722969530447 -143.66935288631356 C64.76413203203204 -152.13467821233905, 63.51482976897284 -154.64692801657753, 62.30358911096075 -160.98212875776923 C61.09234845294866 -167.31732949896093, 60.71091495253091 -170.61439159784157, 57.92978574723194 -181.6805573334638 C55.148656541932965 -192.74672306908604, 49.400646090224996 -215.50639439864395, 45.616813879166884 -227.37912317150273 C41.83298166810877 -239.2518519443615, 38.00289079901635 -246.70180248750685, 35.226792480883276 -252.91692997061648 C32.4506941627502 -259.13205745372613, 32.47323581170609 -259.10055940691075, 28.96022397036843 -264.66988807016054 C25.447212129030763 -270.23921673341033, 18.038032925528274 -280.73587367329435, 14.148721432857293 -286.33290195011534 C10.25940994018631 -291.92993022693634, 8.867084890533933 -294.8830729437216, 5.624355014342538 -298.2520577310864 C2.381625138151144 -301.6210425184512, -1.7290360259931399 -305.07179151588116, -5.307657824291074 -306.54681067430414 C-8.886279622589008 -308.0218298327271, -13.02906630024795 -307.96482449475366, -15.84737577544507 -307.1021726816241 C-18.66568525064219 -306.23952086849454, -21.28140566031911 -302.0569819592777, -22.217514675473794 -301.3708997955266" stroke="#862e9c" stroke-width="1" fill="none"></path></g></g><g><g transform="translate(251 468.49999999999994) rotate(0 114.51963294148447 -153.32364285291987)"><path d="M-0.9040116012096404 -0.7440019905567169 C10.844254682461422 -0.8822229047616322, 56.90833008885384 0.5017190635204315, 69.8799138367176 0.3208121955394745 C82.85149758458138 0.13990532755851745, 72.9475818614165 0.6573657691478727, 76.92549088597298 -1.829443198442459 C80.90339991052946 -4.316252166032791, 89.90304253697394 -11.500364396969477, 93.74736798405647 -14.600041610002517 C97.59169343113899 -17.699718823035557, 97.27686055302621 -16.330911538998286, 99.9914435684681 -20.4275064766407 C102.70602658390999 -24.524101414283116, 105.20243434707324 -29.92496576110522, 110.03486607670784 -39.17961123585701 C114.86729780634245 -48.4342567106088, 122.47774568994839 -58.13780050079028, 128.9860339462757 -75.95537932515144 C135.49432220260303 -93.7729581495126, 145.3986930191517 -129.05593919555346, 149.0845956146717 -146.085084182024 C152.77049821019173 -163.11422916849452, 148.95909143884978 -167.76382194956142, 151.10144951939583 -178.13024924397467 C153.24380759994187 -188.49667653838793, 160.2840060532093 -198.94380553364755, 161.93874409794807 -208.2836479485035 C163.59348214268684 -217.62349036335945, 160.92975196639696 -228.37616338531177, 161.02987778782844 -234.16930373311044 C161.13000360925992 -239.9624440809091, 160.05056094924606 -237.53908560872077, 162.53949902653693 -243.0424900352955 C165.0284371038278 -248.5458944618702, 169.56524810592333 -258.34201230804126, 175.96350625157356 -267.1897302925587 C182.3617643972238 -276.0374482770761, 195.89054520726205 -290.45896692077315, 200.92904790043832 -296.12879794239996 C205.9675505936146 -301.79862896402676, 204.8411006907622 -300.1285562177499, 206.19452241063118 -301.2087164223194 C207.54794413050016 -302.2888766268889, 208.46281299392382 -302.0206369698048, 209.04957821965218 -302.609759169817 C209.63634344538053 -303.19888136982917, 206.2328305542469 -303.73631594777106, 209.7151137650013 -304.74344962239263 C213.19739697575568 -305.7505832970142, 226.55955180923144 -308.07461658914883, 229.94327748417854 -308.65256121754646 M0.8222435788158329 1.479793019061908 C12.455328372602041 1.9958738731003054, 55.79658451654948 2.341198360091075, 68.86882313736714 1.501663849418983 C81.9410617581848 0.6621293387468906, 75.00270662296253 -1.0052696424070744, 79.2556753037218 -3.5574140449706464 C83.50864398448107 -6.109558447534218, 91.0890913681034 -11.027236947451406, 94.38663522192277 -13.811202565962448 C97.68417907574215 -16.59516818447349, 96.28197623976506 -15.93159696731406, 99.04093842663802 -20.261207756036892 C101.79990061351099 -24.590818544759724, 106.36612411636548 -30.28611225489216, 110.94040834316053 -39.788867298299444 C115.51469256995557 -49.29162234170673, 120.20534410028097 -59.5849353370412, 126.48664378740824 -77.27773801648058 C132.7679434745355 -94.97054069591996, 144.2730123511795 -129.41746288124162, 148.62820646592417 -145.94568337493575 C152.98340058066884 -162.4739038686299, 150.79925958602067 -165.95718986226555, 152.61780847587622 -176.44706097864545 C154.43635736573177 -186.93693209502536, 158.0814919123892 -199.41389706217683, 159.53949980505743 -208.88491007321514 C160.99750769772567 -218.35592308425345, 160.53157832849462 -227.50583857033092, 161.3658558318857 -233.27313904487528 C162.2001333352768 -239.04043951941964, 161.9897048898383 -237.68192928337493, 164.54516482540407 -243.48871292048133 C167.10062476096985 -249.29549655758774, 170.7582288758798 -259.29726573858096, 176.69861544528044 -268.1138408675138 C182.63900201468107 -276.9304159964466, 195.72219962337053 -290.84864694717965, 200.18748424180782 -296.3881636940781 C204.65276886024512 -301.9276804409766, 201.8365460263534 -299.9467618943596, 203.49032315590418 -301.35094134890477 C205.14410028545495 -302.7551208034499, 209.3065973694964 -304.39504370593465, 210.11014701911247 -304.8132404213492 C210.91369666872856 -305.2314371367637, 205.22527082809245 -303.31185714834373, 208.31162105360067 -303.8601216413919 C211.3979712791089 -304.4083861344401, 225.24025896805958 -307.48935279531713, 228.62824837216175 -308.1028273796383" stroke="#5c940d" stroke-width="1" fill="none"></path></g></g><g><g transform="translate(249 469.49999999999994) rotate(0 346.09557054291577 -117.4173695743084)"><path d="M-0.4068149864673615 -0.5662117660045624 C-0.4834616005420685 -0.6082530995210012, -2.164279967546463 -0.8249801019827524, -0.40815680623054507 0.4628064453601838 C1.3479663550853727 1.7505929927031199, 7.118830523888269 5.40155194401741, 10.129923981428146 7.160507518053055 C13.141017438968023 8.9194630920887, 8.347222997744879 5.567990809679031, 17.658403939008714 11.016539889574052 C26.96958488027255 16.465088969469072, 55.98437401652337 34.75148493250211, 65.99700962901116 39.85180199742317 C76.00964524149896 44.95211906234424, 72.36251014272372 40.160432749986654, 77.73421761393547 41.61844227910042 C83.10592508514722 43.07645180821419, 85.18260793884595 44.80114936629931, 98.22725445628166 48.59985917210579 C111.27190097371736 52.39856897791226, 143.88106063405672 61.6445332189401, 156.00209671854972 64.41070111393928 C168.12313280304272 67.17686900893847, 166.29634479085604 64.45939941207568, 170.95347096323968 65.1968665421009 C175.61059713562332 65.93433367212613, 178.80235363841058 68.07914638320605, 183.9448537528515 68.83550389409065 C189.0873538672924 69.59186140497525, 192.84173040588698 68.63508923649788, 201.80847164988518 69.73501160740852 C210.77521289388338 70.83493397831917, 205.92586832245192 74.42312640945117, 237.74530121684074 75.43503811955452 C269.5647341112296 76.44694982965787, 362.30157728393874 76.20373967289925, 392.7250690162182 75.80648186802864 C423.14856074849763 75.40922406315804, 414.91775051951413 73.86866079767545, 420.2862516105175 73.05149129033089 C425.6547527015209 72.23432178298633, 415.8586979250113 72.37420488794645, 424.93607556223867 70.90346482396126 C434.013453199466 69.43272475997607, 465.21081272959714 65.94127038121223, 474.7505174338818 64.22705090641975 C484.2902221381664 62.51283143162727, 477.0292381624381 61.48867238163948, 482.1743037879467 60.61814797520638 C487.3193694134553 59.74762356877327, 500.9712007860343 59.599809326728185, 505.62091118693354 59.00390446782112 C510.2706215878328 58.40799960891406, 508.96267716288565 57.72266298731168, 510.0725661933422 57.04271882176399 C511.18245522379874 56.3627746562163, 507.66506052215897 57.5364651342233, 512.2802453696728 54.924239474534986 C516.8954302171867 52.31201381484667, 530.6084940930208 46.385030871629716, 537.7636752784252 41.36936486363411 C544.9188564638297 36.353698855638505, 550.0918711046378 30.143425303697587, 555.2113324820996 24.830243426561356 C560.3307938595614 19.517061549425126, 563.2495014528433 14.717963534593583, 568.4804435431957 9.490273600816726 C573.7113856335482 4.262583667039871, 580.8177783668042 0.64621066848437, 586.5969850242138 -6.535896176099778 C592.3761916816235 -13.718003020683925, 599.6018450756868 -25.16968485713005, 603.1556834876537 -33.60236746668816 C606.7095218996207 -42.035050076246264, 606.875594808658 -49.49632460474968, 607.9200154960156 -57.13199183344841 C608.9644361833732 -64.76765906214715, 609.748337461551 -73.96906013687452, 609.4222076117992 -79.41637083888054 C609.0960777620473 -84.86368154088656, 606.464799596866 -87.32532634933789, 605.9632363975048 -89.81585604548454 C605.4616731981437 -92.30638574163119, 606.6051244437695 -92.50464147130648, 606.4128284156322 -94.35954901576042 C606.220532387495 -96.21445656021436, 605.1182052314282 -98.1819403986136, 604.8094602286816 -100.94530131220817 C604.500715225935 -103.70866222580274, 605.0216851890087 -107.60090802709261, 604.5603583991527 -110.9397144973278 C604.0990316092967 -114.27852096756298, 602.7352908790111 -116.37397925257683, 602.0414994895458 -120.9781401336193 C601.3477081000805 -125.58230101466178, 600.4141655306021 -134.0156723042329, 600.3976100623607 -138.56467978358268 C600.3810545941194 -143.11368726293244, 601.0155357062816 -145.2759220778942, 601.9421666800976 -148.27218500971793 C602.8687976539135 -151.26844794154167, 604.6320446352164 -151.94008013606071, 605.9573959052562 -156.54225737452506 C607.2827471752961 -161.14443461298941, 607.025085546573 -167.32891470789912, 609.8942743003369 -175.88524844050409 C612.7634630541007 -184.44158217310905, 619.5248016695182 -197.46527735590936, 623.1725284278393 -207.88025977015496 C626.8202551861605 -218.29524218440056, 629.5634195665518 -232.10743630925816, 631.7806348502636 -238.3751429259777 C633.9978501339754 -244.64284954269726, 635.4419158001741 -243.71574313044547, 636.4758201301098 -245.48649947047232 C637.5097244600455 -247.25725581049917, 635.9300169328849 -245.41929938197137, 637.9840608298779 -248.99968096613884 C640.0381047268709 -252.5800625503063, 645.5661995271842 -260.1826232930024, 648.8000835120678 -266.9687889754772 C652.0339674969514 -273.754954657952, 652.157690145572 -283.23898309270544, 657.3873647391796 -289.7166750609875 C662.6170393327872 -296.19436702926953, 674.1137986838818 -302.2903970102469, 680.1781310737133 -305.8349407851696 C686.2424634635448 -309.37948456009224, 691.4125850379467 -310.37429994146027, 693.7733590781688 -310.9839377105236 M1.5804684162978084 1.750923111503944 C1.3055610410217198 1.8036778260922683, -2.9666458194609735 0.5829821326987197, -1.5704845931287856 1.7182050803955646 C-0.174323366796598 2.8534280280924094, 6.653860833231979 7.349614274268971, 9.957435774290934 8.562260797685013 C13.261010715349888 9.774907321101056, 8.633966570779062 3.7270047426875683, 18.250965053224938 8.994084220891818 C27.867963535670814 14.261163699096066, 58.05593427159823 34.84655765172404, 67.65942666896619 40.16473766691051 C77.26291906633415 45.48291768209698, 70.73773970473248 39.14662047452293, 75.87191943743267 40.90316431201063 C81.00609917013286 42.65970814949833, 85.28025902984973 46.806963210270425, 98.46450506516732 50.7040006918367 C111.6487511004849 54.60103817340297, 143.0911229639097 62.08325755086106, 154.97739564933815 64.28538920140825 C166.8636683347666 66.48752085195544, 164.91857094783026 63.24822271423104, 169.78214117773808 63.91679059511982 C174.6457114076459 64.5853584760086, 178.87197197982113 67.18610461102489, 184.15881702878514 68.29679648674093 C189.44566207774915 69.40748836245697, 192.74234544871686 69.42382167792879, 201.50321147152223 70.58094184941612 C210.2640774943276 71.73806202090346, 204.83954863397713 74.43544404433729, 236.72401316561735 75.23951751566491 C268.60847769725757 76.04359098699254, 362.3961308723533 75.71000603235326, 392.8099986613635 75.40538267738185 C423.22386645037375 75.10075932241044, 413.8911877245549 74.17598532345457, 419.2072198996786 73.41177738583647 C424.52325207480226 72.64756944821838, 415.8208818085833 72.12244879182738, 424.70619171210564 70.82013505167328 C433.591501615628 69.51782131151917, 462.6122969663981 67.20686500436626, 472.5190793208126 65.59789494491183 C482.42586167522705 63.988924885457386, 478.267292430584 62.7262500540074, 484.1468858385924 61.166314694946635 C490.02647924660084 59.60637933588587, 503.6130236576839 57.40164672639531, 507.7966397688631 56.23828279054724 C511.98025588004225 55.07491885469916, 508.39579649486575 54.185936999882884, 509.24858250566757 54.18613107985817 C510.1013685164694 54.18632515983346, 508.27492134658934 58.01832121219797, 512.9133558336739 56.23944727039896 C517.5517903207584 54.460573328599956, 529.9632340079391 48.46546389377676, 537.0791894281749 43.512887429064136 C544.1951448484107 38.560310964351515, 550.4242831646247 32.295972934430466, 555.6090883550886 26.52398848212324 C560.7938935455525 20.752004029816018, 562.7861845596476 14.49821208334528, 568.1880205709581 8.880980715220794 C573.5898565822686 3.263749347096309, 582.4254751599674 -0.18188655091760086, 588.0201044229511 -7.17939972662367 C593.6147336859349 -14.17691290232974, 598.3409673231685 -24.82967666708865, 601.7557961488608 -33.10409833901562 C605.1706249745531 -41.378520010942594, 607.5609362974607 -48.99731860452332, 608.5090773771051 -56.825929758185524 C609.4572184567495 -64.65454091184773, 607.7269743883455 -74.84596684320209, 607.444642626727 -80.07576526098885 C607.1623108651086 -85.3055636787756, 607.0211784586156 -85.53129083706376, 606.8150868073944 -88.20472026490606 C606.6089951561733 -90.87814969274835, 606.8033374283556 -94.29566251400547, 606.2080927194003 -96.11634182804264 C605.612848010445 -97.9370211420798, 603.5314531082754 -96.44367710921603, 603.2436185536627 -99.12879614912904 C602.95578399905 -101.81391518904206, 604.6089276997093 -108.81767399850922, 604.4810853917245 -112.22705606752075 C604.3532430837397 -115.63643813653228, 602.9450846279506 -115.14992419832386, 602.4765647057537 -119.58508856319823 C602.0080447835569 -124.0202529280726, 601.5656893755837 -134.22815119905707, 601.6699658585433 -138.83804225676693 C601.7742423415028 -143.44793331447678, 602.2168036491516 -144.22105179839767, 603.1022236035112 -147.24443490945734 C603.9876435578708 -150.267818020517, 605.8753062124892 -152.36048360132614, 606.9824855847005 -156.97834092312493 C608.0896649569117 -161.59619824492373, 607.3094137200558 -166.26365252011453, 609.745299836779 -174.95157884025014 C612.1811859535023 -183.63950516038574, 618.3458682169362 -198.39196694099346, 621.5978022850398 -209.1058988439385 C624.8497363531435 -219.81983074688353, 626.9404579721734 -233.31655855748494, 629.2569042454008 -239.2351702579204 C631.5733505186283 -245.15378195835586, 634.2818716454351 -243.07713653706944, 635.496479924405 -244.61756904655135 C636.7110882033749 -246.15800155603327, 634.1888857870146 -244.8608416878525, 636.5445539192203 -248.47776531481185 C638.9002220514261 -252.09468894177118, 645.9875523378296 -259.50110062523123, 649.6304887176398 -266.3191108083073 C653.27342509745 -273.13712099138337, 653.3783861294233 -282.7231466052277, 658.4021721980814 -289.3858264132682 C663.4259582667395 -296.0485062213087, 673.836885717297 -302.82620702448924, 679.7732051295881 -306.29518965655006 C685.7095245418791 -309.7641722886109, 691.7073875475768 -309.6823575869544, 694.0200886718277 -310.1997222056333" stroke="#d9480f" stroke-width="1" fill="none"></path></g></g></svg>